<svg width="644" height="736" viewBox="0 0 644 736" fill="none" xmlns="http://www.w3.org/2000/svg">
<path d="M219.338 119.417H231.522V112.105H411.867V119.417H421.615L548.344 0H614.146L643.39 38.9932V148.662L597.085 246.146V324.132L577.589 363.125V453.298L484.979 587.337V633.642L404.556 697.006L377.748 735.999H265.643L238.834 697.006L158.41 633.642V587.337L65.8008 453.298V363.125L46.3047 324.132V246.146L0 148.662V38.9932L26.8076 0H95.0459L219.338 119.417ZM260.768 594.648L309.51 636.079V667.761H333.881V636.079L382.622 594.648H260.768ZM109.592 342.471V432.645H282.211V396.575H362.077V432.645H534.697V342.471H362.077V378.54H282.211V342.471H109.592Z" fill="#13CE67"/>
</svg>
